HIERARCHY
ROOT Hips
{
  OFFSET 179.979 97.3047 303.174
  CHANNELS 6 Xposition Yposition Zposition Zrotation Xrotation Yrotation
  JOINT Spine
  {
    OFFSET 0.000859786 9.92346 -1.22733
    CHANNELS 3 Zrotation Xrotation Yrotation
    JOINT Spine1
    {
      OFFSET 0 11.732 0
      CHANNELS 3 Zrotation Xrotation Yrotation
      JOINT Spine2
      {
        OFFSET 0 13.4588 0
        CHANNELS 3 Zrotation Xrotation Yrotation
        JOINT Neck
        {
          OFFSET 2.54812e-05 15.0278 0.877907
          CHANNELS 3 Zrotation Xrotation Yrotation
          JOINT Head
          {
            OFFSET 0 10.3218 3.14243
            CHANNELS 3 Zrotation Xrotation Yrotation
            End Site
            {
              OFFSET 0 0 0
            }
          }
        }
        JOINT LeftShoulder
        {
          OFFSET 6.10582 9.10629 0.757062
          CHANNELS 3 Zrotation Xrotation Yrotation
          JOINT LeftArm
          {
            OFFSET 0 12.9223 0
            CHANNELS 3 Zrotation Xrotation Yrotation
            JOINT LeftForeArm
            {
              OFFSET 0 27.4047 0
              CHANNELS 3 Zrotation Xrotation Yrotation
              JOINT LeftHand
              {
                OFFSET -1.28204e-05 27.6145 0
                CHANNELS 3 Zrotation Xrotation Yrotation
                End Site
                {
                  OFFSET 0 0 0
                }
              }
            }
          }
        }
        JOINT RightShoulder
        {
          OFFSET -6.1057 9.10638 0.757076
          CHANNELS 3 Zrotation Xrotation Yrotation
          JOINT RightArm
          {
            OFFSET 0 12.9223 0
            CHANNELS 3 Zrotation Xrotation Yrotation
            JOINT RightForeArm
            {
              OFFSET 0 27.4047 0
              CHANNELS 3 Zrotation Xrotation Yrotation
              JOINT RightHand
              {
                OFFSET 1.28428e-05 27.6145 1.44975e-05
                CHANNELS 3 Zrotation Xrotation Yrotation
                End Site
                {
                  OFFSET 0 0 0
                }
              }
            }
          }
        }
      }
    }
  }
  JOINT LeftUpLeg
  {
    OFFSET 9.12387 -6.65719 -0.0554031
    CHANNELS 3 Zrotation Xrotation Yrotation
    JOINT LeftLeg
    {
      OFFSET 0 40.5994 0
      CHANNELS 3 Zrotation Xrotation Yrotation
      JOINT LeftFoot
      {
        OFFSET 0 42.099 0
        CHANNELS 3 Zrotation Xrotation Yrotation
        JOINT LeftToeBase
        {
          OFFSET 0 15.7216 0
          CHANNELS 3 Zrotation Xrotation Yrotation
          End Site
          {
            OFFSET 0 0 0
          }
        }
      }
    }
  }
  JOINT RightUpLeg
  {
    OFFSET -9.12503 -6.6556 -0.0553527
    CHANNELS 3 Zrotation Xrotation Yrotation
    JOINT RightLeg
    {
      OFFSET 0 40.5994 0
      CHANNELS 3 Zrotation Xrotation Yrotation
      JOINT RightFoot
      {
        OFFSET 0 42.099 0
        CHANNELS 3 Zrotation Xrotation Yrotation
        JOINT RightToeBase
        {
          OFFSET 0 15.7216 0
          CHANNELS 3 Zrotation Xrotation Yrotation
          End Site
          {
            OFFSET 0 0 0
          }
        }
      }
    }
  }
}
MOTION
Frames:	11
Frame Time:	0.0333333
-6.08244 98.5438 244.953 -1.17052 -6.72756 0.287146 0.445239 -4.91577 -0.228102 0.859719 4.11536 -0.566965 0.927578 10.7095 -0.57503 -3.95133 1.66846 -2.44199 4.96889 -4.14913 -4.71648 -90.1121 -18.4133 89.9023 18.5986 4.01647 -1.30652 10.5842 -15.9164 -0.706417 -13.7689 2.90669 -8.5359 90.3762 -7.89054 -90.9508 -6.73855 13.5516 6.7829 -16.8571 -21.0473 0.96373 13.2853 -2.06531 -8.67807 -172.034 -4.60989 -8.87837 -3.35331 -16.4142 -4.7655 12.9095 78.6171 -15.4908 -0.965259 26.367 -3.60229 176.258 -2.35482 -5.25137 4.94137 -17.2534 13.1522 -30.9385 74.7471 34.3297 0.963532 26.3682 3.55537 
-6.08835 98.5438 244.941 -1.16982 -6.72756 0.293053 0.445247 -4.91373 -0.228101 0.863101 4.11941 -0.567976 0.931085 10.7135 -0.57605 -3.96773 1.65871 -2.44189 4.98288 -4.14323 -4.72263 -90.1122 -18.4056 89.9022 18.6013 4.01646 -1.31623 10.5952 -15.9246 -0.706446 -13.7681 2.91474 -8.52679 90.3705 -7.8959 -90.9517 -6.74067 13.5573 6.77868 -16.8564 -21.0473 0.96373 13.2829 -2.04903 -8.67306 -172.028 -4.59873 -8.87817 -3.35323 -16.4211 -4.76296 12.8929 78.6176 -15.4788 -0.965259 26.367 -3.60229 176.265 -2.34804 -5.24747 4.94249 -17.2553 13.1547 -30.9447 74.7433 34.3298 0.963532 26.3682 3.55537 
-6.12176 98.5441 244.874 -1.16617 -6.72754 0.324249 0.445293 -4.90217 -0.228097 0.875212 4.14242 -0.578369 0.944426 10.7366 -0.586601 -3.98807 1.60843 -2.44674 5.0166 -4.11435 -4.73981 -90.111 -18.3627 89.9018 18.6157 4.01641 -1.35114 10.6542 -15.9512 -0.70654 -13.769 2.95933 -8.50425 90.359 -7.92178 -90.9536 -6.75257 13.5848 6.74904 -16.8386 -21.0473 0.96373 13.2675 -1.95041 -8.62989 -171.996 -4.5352 -8.8707 -3.34507 -16.4566 -4.74435 12.7757 78.6125 -15.3882 -0.965259 26.367 -3.60229 176.299 -2.30444 -5.22632 4.94306 -17.2688 13.1678 -30.9774 74.7208 34.3259 0.963532 26.3682 3.55537 
-6.15514 98.5444 244.805 -1.16278 -6.72752 0.353179 0.445496 -4.89092 -0.232437 0.880987 4.16484 -0.589154 0.951476 10.759 -0.597598 -3.95558 1.58298 -2.4654 5.01514 -4.11801 -4.74545 -90.0908 -18.3332 89.9077 18.6384 4.01244 -1.36014 10.7109 -15.9736 -0.706619 -13.7705 2.9749 -8.55042 90.3635 -7.92881 -90.9531 -6.75291 13.6029 6.70943 -16.8109 -21.0473 0.96373 13.2431 -1.94721 -8.62175 -171.964 -4.46855 -8.88805 -3.33059 -16.496 -4.71136 12.6167 78.6093 -15.2539 -0.965259 26.367 -3.60229 176.332 -2.25724 -5.2043 4.94361 -17.2853 13.1793 -31.009 74.6999 34.32 0.963532 26.3682 3.55537 
-6.18734 98.5447 244.737 -1.16034 -6.7275 0.374038 0.445773 -4.88058 -0.23883 0.88556 4.18546 -0.6022 0.957595 10.7796 -0.610847 -3.93557 1.57586 -2.47558 5.02598 -4.13533 -4.74586 -90.0757 -18.3318 89.9124 18.6746 3.99519 -1.34972 10.7701 -15.9987 -0.710351 -13.7775 2.93983 -8.61376 90.3715 -7.92243 -90.9519 -6.75089 13.6103 6.66734 -16.7845 -21.0438 0.963707 13.2097 -2.0428 -8.58846 -171.936 -4.40546 -8.91495 -3.31393 -16.5307 -4.67729 12.4638 78.6063 -15.1215 -0.965259 26.367 -3.60229 176.363 -2.20377 -5.18415 4.94446 -17.3081 13.1876 -31.0358 74.6821 34.3101 0.963532 26.3682 3.55537 
-6.21608 98.545 244.674 -1.164 -6.7275 0.380396 0.446042 -4.87176 -0.245164 0.890646 4.20302 -0.615078 0.964176 10.7971 -0.623951 -3.9228 1.58375 -2.47485 5.03849 -4.16385 -4.74419 -90.0703 -18.3547 89.9145 18.718 3.96382 -1.32698 10.834 -16.0295 -0.715784 -13.7918 2.89108 -8.63221 90.3742 -7.91214 -90.9514 -6.75385 13.6083 6.64023 -16.7799 -21.0651 0.963845 13.1992 -2.08192 -8.55016 -171.914 -4.35318 -8.95104 -3.29581 -16.5546 -4.64633 12.3379 78.6052 -15.0104 -0.965259 26.367 -3.60229 176.391 -2.1499 -5.16991 4.94535 -17.3339 13.1902 -31.0569 74.6707 34.2975 0.963532 26.3682 3.55537 
-6.24058 98.5415 244.619 -1.17145 -6.72751 0.368316 0.446261 -4.8628 -0.250034 0.898532 4.2209 -0.624552 0.973193 10.815 -0.633589 -3.9219 1.57388 -2.46945 5.05341 -4.1803 -4.74338 -90.0744 -18.3975 89.9139 18.7673 3.9269 -1.31232 10.9045 -16.0735 -0.720932 -13.804 2.8677 -8.57308 90.3687 -7.91426 -90.9522 -6.77064 13.6057 6.63269 -16.7959 -21.1027 0.964089 13.2202 -2.07019 -8.56047 -171.895 -4.31803 -8.99516 -3.27676 -16.5654 -4.62133 12.2538 78.6149 -14.9395 -0.965259 26.367 -3.60229 176.418 -2.09359 -5.16709 4.94624 -17.369 13.1908 -31.0757 74.6668 34.2873 0.963532 26.3682 3.55537 
-6.26196 98.5385 244.57 -1.17979 -6.72752 0.349112 0.446427 -4.85346 -0.2534 0.907341 4.2395 -0.633137 0.982997 10.8336 -0.642326 -3.93659 1.54446 -2.46441 5.07531 -4.1825 -4.74538 -90.0831 -18.4379 89.9119 18.8021 3.89286 -1.32291 10.9814 -16.1149 -0.72339 -13.7908 2.85068 -8.47702 90.3538 -7.92748 -90.9544 -6.79293 13.6113 6.66017 -16.8393 -21.1274 0.967939 13.2494 -2.10666 -8.63409 -171.88 -4.28791 -9.03401 -3.2573 -16.5775 -4.60406 12.1993 78.6264 -14.8989 -0.965259 26.367 -3.60229 176.441 -2.04364 -5.17328 4.94708 -17.4002 13.1897 -31.0869 74.6651 34.2714 0.963532 26.3682 3.55537 
-6.28213 98.5358 244.528 -1.1858 -6.72754 0.327384 0.446553 -4.84615 -0.255915 0.914038 4.25413 -0.638979 0.990372 10.8482 -0.648266 -3.95824 1.54039 -2.462 5.10428 -4.2022 -4.75512 -90.0931 -18.4396 89.9088 18.7988 3.87443 -1.29222 11.0478 -16.1828 -0.726891 -13.7574 2.85191 -8.44419 90.3406 -7.93507 -90.9563 -6.79292 13.625 6.72969 -16.9169 -21.1296 0.970895 13.2771 -2.19201 -8.7732 -171.869 -4.25491 -9.05808 -3.2399 -16.6005 -4.59813 12.1649 78.6288 -14.8816 -0.965259 26.367 -3.60229 176.46 -2.00125 -5.17879 4.94965 -17.4221 13.186 -31.0967 74.6636 34.2552 0.963532 26.3682 3.55537 
-6.3014 98.5334 244.494 -1.19562 -6.72755 0.31237 0.446717 -4.84068 -0.259662 0.920524 4.26497 -0.647471 0.997874 10.859 -0.656903 -3.99314 1.54345 -2.45646 5.14561 -4.22634 -4.77232 -90.1055 -18.4242 89.9046 18.7799 3.86773 -1.25809 11.1039 -16.2511 -0.730469 -13.7182 2.86233 -8.47198 90.3279 -7.92056 -90.9573 -6.77108 13.6436 6.76048 -16.9566 -21.1471 0.973595 13.2829 -2.21318 -8.88559 -171.852 -4.21679 -9.05498 -3.22681 -16.6357 -4.60556 12.1595 78.6354 -14.8967 -0.965259 26.367 -3.60229 176.482 -1.97179 -5.17304 4.9505 -17.4323 13.1789 -31.1039 74.6624 34.2391 0.963532 26.3682 3.55537 
-6.31967 98.5314 244.467 -1.20879 -6.72755 0.297899 0.446865 -4.83606 -0.263055 0.926332 4.27412 -0.656741 1.00478 10.8682 -0.666335 -4.05652 1.52803 -2.45068 5.21473 -4.23486 -4.79842 -90.1187 -18.4131 89.9002 18.7737 3.87534 -1.23522 11.1414 -16.2936 -0.733224 -13.6826 2.8565 -8.57525 90.3138 -7.90939 -90.9585 -6.75143 13.6729 6.79715 -16.9868 -21.1636 0.976036 13.2643 -2.19233 -8.91069 -171.831 -4.17879 -9.04981 -3.21701 -16.6747 -4.61434 12.1582 78.6442 -14.9163 -0.965259 26.367 -3.60229 176.506 -1.94553 -5.15992 4.95058 -17.4392 13.1678 -31.1086 74.6617 34.2226 0.963532 26.3682 3.55537 
